<svg xmlns="http://www.w3.org/2000/svg" viewBox="0 0 24 24" role="img" aria-hidden="true">
  <title>Google icon</title>
  <g fill="none" fill-rule="evenodd">
    <path d="M23.52 12.273c0-.851-.076-1.67-.218-2.455H12v4.64h6.44c-.278 1.5-1.12 2.773-2.388 3.627v3.01h3.868c2.266-2.085 3.58-5.156 3.58-8.822z" fill="#4285F4"/>
    <path d="M12 24c3.24 0 5.956-1.077 7.941-2.904l-3.868-3.01c-1.077.72-2.459 1.148-4.073 1.148-3.132 0-5.787-2.114-6.736-4.96H1.245v3.117C3.218 21.408 7.272 24 12 24z" fill="#34A853"/>
    <path d="M5.264 14.274a7.182 7.182 0 0 1-.375-2.274c0-.788.137-1.555.375-2.274V6.609H1.245A11.96 11.96 0 0 0 0 12c0 1.956.467 3.805 1.245 5.391l4.019-3.117z" fill="#FBBC05"/>
    <path d="M12 4.75c1.764 0 3.349.607 4.595 1.8l3.446-3.446C17.95 1.18 15.235 0 12 0 7.272 0 3.218 2.592 1.245 6.609l4.019 3.117C6.213 6.864 8.868 4.75 12 4.75z" fill="#EA4335"/>
  </g>
</svg>
