<svg xmlns="http://www.w3.org/2000/svg" viewBox="0 0 320 96" role="img" aria-labelledby="logoTitle logoDesc">
  <title id="logoTitle">EtnaMonitor</title>
  <desc id="logoDesc">Stylised volcano icon followed by the EtnaMonitor logotype.</desc>
  <defs>
    <linearGradient id="lavaGradient" x1="0%" y1="0%" x2="100%" y2="100%">
      <stop offset="0%" stop-color="#ff7a45" />
      <stop offset="50%" stop-color="#ff4d4f" />
      <stop offset="100%" stop-color="#c41d7f" />
    </linearGradient>
    <linearGradient id="skyGradient" x1="0%" y1="0%" x2="0%" y2="100%">
      <stop offset="0%" stop-color="#0bb5ff" />
      <stop offset="100%" stop-color="#003b8e" />
    </linearGradient>
  </defs>
  <rect x="0" y="0" width="96" height="96" rx="18" fill="url(#skyGradient)" />
  <path d="M20 72 L48 20 L76 72 Z" fill="#1b2a4b" />
  <path d="M48 20 L36 48 L60 48 Z" fill="url(#lavaGradient)" />
  <circle cx="48" cy="16" r="8" fill="#ffe58f" />
  <g transform="translate(112,26)" fill="#0b1b3c">
    <path d="M0 44 V0 h20 c14 0 24 9 24 22 c0 13 -10 22 -24 22 Z m32 -22 c0 -7 -4 -12 -12 -12 h-10 v24 h10 c8 0 12 -5 12 -12 Z" />
    <path d="M55 44 V0 h12 v44 Z" />
    <path d="M77 44 V0 h12 v44 Z" />
    <path d="M99 46 c-13 0 -23 -10 -23 -24 c0 -13 10 -24 23 -24 c10 0 18 5 21 13 l-11 4 c-1 -3 -4 -7 -10 -7 c-7 0 -12 6 -12 14 c0 8 5 14 12 14 c6 0 9 -4 10 -7 l11 4 c-3 8 -11 13 -21 13 Z" />
    <path d="M167 44 l-4 -10 h-25 l-4 10 h-12 L149 0 h12 l27 44 Z m-17 -38 l-9 18 h18 Z" />
    <path d="M180 22 c0 -13 10 -24 24 -24 c14 0 24 11 24 24 c0 13 -10 24 -24 24 c-14 0 -24 -11 -24 -24 Z m36 0 c0 -8 -5 -14 -12 -14 c-7 0 -12 6 -12 14 c0 8 5 14 12 14 c7 0 12 -6 12 -14 Z" />
  </g>
</svg>
